<?xml version="1.0" encoding="UTF-8"?>
<!DOCTYPE svg PUBLIC "-//W3C//DTD SVG 1.1//EN" "http://www.w3.org/Graphics/SVG/1.1/DTD/svg11.dtd">
<!-- Creator: CorelDRAW X7 -->
<svg xmlns="http://www.w3.org/2000/svg" xml:space="preserve" width="210mm" height="297mm" version="1.1" style="shape-rendering:geometricPrecision; text-rendering:geometricPrecision; image-rendering:optimizeQuality; fill-rule:evenodd; clip-rule:evenodd"
viewBox="0 0 21000 29700"
 xmlns:xlink="http://www.w3.org/1999/xlink">
 <defs>
  <style type="text/css">
   <![CDATA[
    .fil0 {fill:#121212}
   ]]>
  </style>
    <clipPath id="id0">
     <path d="M-785 6925l22267 0 0 8490 -22267 0 0 -8490z"/>
    </clipPath>
 </defs>
 <g id="Layer_x0020_1">
  <metadata id="CorelCorpID_0Corel-Layer"/>
  <g id="_1947166469520">
   <g style="clip-path:url(#id0)">
    <image x="-785" y="6925" width="22267" height="8490" xlink:href="Logo Find IT Sementara_Images\Logo Find IT Sementara_ImgID1.png"/>
   </g>
  </g>
  <g id="_1947166468368">
   <path class="fil0" d="M712 13074l0 305 401 0 0 71 -401 0 0 329 -82 0 0 -776 532 0 0 71 -450 0zm1109 122l0 583 -75 0 0 -106c-21,35 -50,63 -86,83 -36,19 -77,29 -124,29 -76,0 -136,-21 -180,-64 -44,-42 -66,-105 -66,-187l0 -338 78 0 0 331c0,61 16,108 46,139 30,32 74,48 130,48 61,0 110,-19 145,-56 36,-37 53,-89 53,-156l0 -306 79 0zm528 548c-15,13 -33,23 -55,30 -22,8 -44,11 -68,11 -55,0 -97,-15 -126,-44 -30,-30 -45,-72 -45,-126l0 -352 -104 0 0 -67 104 0 0 -128 79 0 0 128 177 0 0 67 -177 0 0 348c0,35 9,61 26,79 17,18 42,27 75,27 16,0 32,-2 47,-7 15,-6 28,-13 39,-23l28 57zm669 -548l0 583 -75 0 0 -106c-21,35 -50,63 -86,83 -36,19 -77,29 -124,29 -76,0 -136,-21 -180,-64 -44,-42 -66,-105 -66,-187l0 -338 78 0 0 331c0,61 16,108 46,139 30,32 73,48 130,48 61,0 110,-19 145,-56 35,-37 53,-89 53,-156l0 -306 79 0zm296 114c19,-39 46,-69 83,-89 36,-19 82,-29 136,-29l0 76 -19 -1c-62,0 -110,19 -144,57 -35,37 -52,90 -52,158l0 297 -79 0 0 -583 75 0 0 114zm863 202l-488 0c5,61 28,110 70,147 42,37 95,56 160,56 36,0 69,-6 100,-19 30,-13 56,-32 78,-57l45 51c-26,31 -58,54 -97,71 -39,16 -82,24 -128,24 -60,0 -113,-13 -160,-38 -46,-26 -82,-61 -108,-106 -26,-45 -39,-96 -39,-153 0,-57 13,-108 38,-153 24,-45 58,-81 102,-106 43,-25 91,-37 145,-37 54,0 103,12 146,37 43,25 76,60 101,105 24,45 36,96 36,154l-1 24zm-282 -253c-56,0 -103,18 -141,54 -38,36 -60,83 -65,140l414 0c-5,-57 -27,-104 -65,-140 -38,-36 -86,-54 -143,-54zm751 -256l83 0 0 776 -83 0 0 -776zm616 189c73,0 132,21 175,63 43,43 65,105 65,186l0 338 -79 0 0 -330c0,-61 -15,-107 -45,-139 -31,-32 -74,-47 -130,-47 -63,0 -113,18 -149,56 -37,37 -55,88 -55,154l0 306 -79 0 0 -583 75 0 0 108c22,-36 52,-63 90,-83 38,-20 82,-29 132,-29zm751 0c73,0 132,21 175,63 43,43 65,105 65,186l0 338 -79 0 0 -330c0,-61 -15,-107 -45,-139 -31,-32 -74,-47 -130,-47 -63,0 -113,18 -149,56 -37,37 -55,88 -55,154l0 306 -79 0 0 -583 75 0 0 108c22,-36 52,-63 90,-83 38,-20 82,-29 132,-29zm695 593c-57,0 -107,-13 -152,-38 -45,-26 -81,-61 -107,-106 -26,-45 -39,-96 -39,-153 0,-57 13,-108 39,-153 26,-45 62,-81 107,-106 45,-25 95,-37 152,-37 56,0 106,12 152,37 45,25 80,61 106,106 25,45 38,96 38,153 0,57 -13,108 -38,153 -26,45 -61,80 -106,106 -46,25 -96,38 -152,38zm0 -70c41,0 78,-9 111,-28 33,-19 59,-46 77,-81 19,-34 28,-74 28,-118 0,-45 -9,-84 -28,-119 -18,-35 -44,-62 -77,-80 -33,-19 -70,-29 -111,-29 -42,0 -79,10 -112,29 -33,18 -59,45 -78,80 -18,35 -28,74 -28,119 0,44 10,84 28,118 19,35 45,62 78,81 33,19 70,28 112,28zm930 -519l-259 583 -81 0 -259 -583 82 0 219 497 221 -497 77 0zm298 -4c76,0 134,19 175,57 41,38 61,94 61,169l0 361 -76 0 0 -90c-17,30 -43,53 -78,71 -34,17 -75,25 -122,25 -65,0 -117,-16 -156,-47 -38,-31 -57,-72 -57,-123 0,-49 18,-89 53,-120 36,-30 93,-45 172,-45l185 0 0 -35c0,-51 -14,-89 -42,-115 -28,-27 -69,-40 -123,-40 -37,0 -73,6 -107,19 -34,12 -63,29 -87,50l-36 -59c30,-25 65,-44 107,-58 41,-14 85,-20 131,-20zm-28 531c44,0 82,-10 114,-31 32,-20 56,-49 71,-88l0 -95 -183 0c-100,0 -150,35 -150,104 0,34 13,61 39,81 26,19 62,29 109,29zm785 21c-15,13 -33,23 -55,30 -21,8 -44,11 -68,11 -55,0 -97,-15 -126,-44 -30,-30 -45,-72 -45,-126l0 -352 -104 0 0 -67 104 0 0 -128 79 0 0 128 178 0 0 67 -178 0 0 348c0,35 9,61 26,79 18,18 42,27 75,27 16,0 32,-2 47,-7 15,-6 28,-13 40,-23l27 57zm143 -548l79 0 0 583 -79 0 0 -583zm40 -128c-16,0 -30,-5 -41,-16 -11,-11 -16,-25 -16,-40 0,-15 5,-28 16,-39 11,-11 25,-17 41,-17 17,0 30,6 41,16 11,11 17,24 17,39 0,16 -6,30 -17,41 -11,11 -24,16 -41,16zm497 717c-56,0 -107,-13 -152,-38 -45,-26 -80,-61 -106,-106 -26,-45 -39,-96 -39,-153 0,-57 13,-108 39,-153 26,-45 61,-81 106,-106 45,-25 96,-37 152,-37 56,0 107,12 152,37 45,25 81,61 106,106 26,45 38,96 38,153 0,57 -12,108 -38,153 -25,45 -61,80 -106,106 -45,25 -96,38 -152,38zm0 -70c42,0 79,-9 112,-28 33,-19 58,-46 77,-81 18,-34 28,-74 28,-118 0,-45 -10,-84 -28,-119 -19,-35 -44,-62 -77,-80 -33,-19 -70,-29 -112,-29 -41,0 -78,10 -111,29 -33,18 -59,45 -78,80 -19,35 -28,74 -28,119 0,44 9,84 28,118 19,35 45,62 78,81 33,19 70,28 111,28zm755 -523c73,0 131,21 174,63 44,43 65,105 65,186l0 338 -79 0 0 -330c0,-61 -15,-107 -45,-139 -30,-32 -74,-47 -130,-47 -63,0 -112,18 -149,56 -37,37 -55,88 -55,154l0 306 -79 0 0 -583 76 0 0 108c21,-36 51,-63 89,-83 38,-20 82,-29 133,-29zm948 0c76,0 135,19 175,57 41,38 61,94 61,169l0 361 -75 0 0 -90c-18,30 -44,53 -78,71 -35,17 -76,25 -123,25 -65,0 -117,-16 -155,-47 -39,-31 -58,-72 -58,-123 0,-49 18,-89 54,-120 36,-30 93,-45 171,-45l186 0 0 -35c0,-51 -14,-89 -43,-115 -28,-27 -69,-40 -123,-40 -37,0 -72,6 -106,19 -34,12 -63,29 -88,50l-35 -59c29,-25 65,-44 106,-58 42,-14 85,-20 131,-20zm-28 531c45,0 83,-10 115,-31 31,-20 55,-49 71,-88l0 -95 -183 0c-100,0 -150,35 -150,104 0,34 13,61 39,81 26,19 62,29 108,29zm776 -531c73,0 131,21 174,63 44,43 65,105 65,186l0 338 -78 0 0 -330c0,-61 -16,-107 -46,-139 -30,-32 -73,-47 -130,-47 -63,0 -112,18 -149,56 -36,37 -55,88 -55,154l0 306 -79 0 0 -583 76 0 0 108c21,-36 51,-63 89,-83 38,-20 82,-29 133,-29zm988 -236l0 823 -75 0 0 -115c-24,39 -55,69 -94,90 -39,21 -83,31 -131,31 -55,0 -105,-13 -149,-38 -44,-25 -79,-60 -104,-105 -26,-45 -38,-97 -38,-154 0,-58 12,-109 38,-154 25,-46 60,-81 104,-105 44,-25 94,-37 149,-37 47,0 90,9 128,29 38,20 69,48 93,86l0 -351 79 0zm-294 759c41,0 78,-9 111,-28 32,-19 58,-46 77,-81 19,-34 28,-74 28,-118 0,-45 -9,-84 -28,-119 -19,-35 -45,-62 -77,-80 -33,-19 -70,-29 -111,-29 -41,0 -78,10 -111,29 -33,18 -59,45 -78,80 -19,35 -28,74 -28,119 0,44 9,84 28,118 19,35 45,62 78,81 33,19 70,28 111,28zm821 -712l316 0c82,0 155,16 218,49 63,33 111,79 146,138 35,59 52,126 52,201 0,76 -17,143 -52,202 -35,58 -83,104 -146,137 -63,33 -136,49 -218,49l-316 0 0 -776zm312 705c68,0 127,-13 178,-40 51,-27 91,-64 119,-112 28,-48 42,-103 42,-165 0,-62 -14,-117 -42,-165 -28,-47 -68,-85 -119,-112 -51,-27 -110,-40 -178,-40l-230 0 0 634 230 0zm588 -512l78 0 0 583 -78 0 0 -583zm40 -128c-17,0 -30,-5 -41,-16 -11,-11 -17,-25 -17,-40 0,-15 6,-28 17,-39 11,-11 24,-17 41,-17 16,0 30,6 41,16 11,11 16,24 16,39 0,16 -5,30 -16,41 -11,11 -25,16 -41,16zm415 717c-48,0 -93,-7 -136,-21 -44,-13 -77,-30 -102,-51l36 -62c24,19 55,35 92,47 37,12 75,18 115,18 53,0 93,-8 118,-25 26,-16 38,-40 38,-70 0,-22 -7,-38 -21,-51 -14,-12 -31,-21 -53,-27 -21,-7 -50,-13 -85,-19 -48,-9 -86,-18 -115,-27 -28,-9 -53,-25 -73,-47 -21,-22 -31,-53 -31,-92 0,-49 21,-89 61,-120 41,-31 97,-46 170,-46 38,0 75,5 113,15 38,10 69,23 93,39l-34 63c-48,-33 -105,-50 -172,-50 -50,0 -88,9 -114,27 -25,18 -38,41 -38,70 0,22 7,40 22,53 14,13 32,23 53,29 22,7 51,13 89,20 47,9 84,18 112,26 28,9 52,24 72,46 20,21 30,51 30,89 0,51 -21,91 -64,121 -42,30 -101,45 -176,45zm627 0c-57,0 -109,-13 -154,-38 -46,-25 -82,-60 -107,-106 -26,-45 -39,-96 -39,-153 0,-57 13,-108 39,-153 25,-45 61,-81 107,-106 45,-25 97,-37 154,-37 51,0 96,9 135,29 40,20 71,48 94,86l-59 40c-19,-29 -44,-51 -73,-65 -30,-14 -62,-22 -97,-22 -42,0 -80,10 -113,29 -34,18 -60,45 -79,80 -19,35 -28,74 -28,119 0,45 9,85 28,119 19,34 45,61 79,80 33,19 71,28 113,28 35,0 67,-7 97,-21 29,-14 54,-35 73,-64l59 40c-23,37 -54,66 -94,86 -40,19 -85,29 -135,29zm612 0c-57,0 -107,-13 -152,-38 -45,-26 -81,-61 -107,-106 -26,-45 -39,-96 -39,-153 0,-57 13,-108 39,-153 26,-45 62,-81 107,-106 45,-25 95,-37 152,-37 56,0 107,12 152,37 45,25 80,61 106,106 25,45 38,96 38,153 0,57 -13,108 -38,153 -26,45 -61,80 -106,106 -45,25 -96,38 -152,38zm0 -70c41,0 78,-9 111,-28 33,-19 59,-46 77,-81 19,-34 28,-74 28,-118 0,-45 -9,-84 -28,-119 -18,-35 -44,-62 -77,-80 -33,-19 -70,-29 -111,-29 -42,0 -79,10 -112,29 -33,18 -59,45 -77,80 -19,35 -29,74 -29,119 0,44 10,84 29,118 18,35 44,62 77,81 33,19 70,28 112,28zm930 -519l-259 583 -81 0 -259 -583 82 0 219 497 221 -497 77 0zm603 316l-488 0c4,61 27,110 70,147 42,37 95,56 159,56 36,0 70,-6 100,-19 30,-13 57,-32 79,-57l44 51c-26,31 -58,54 -97,71 -39,16 -81,24 -128,24 -60,0 -113,-13 -159,-38 -46,-26 -82,-61 -108,-106 -26,-45 -39,-96 -39,-153 0,-57 12,-108 37,-153 25,-45 59,-81 102,-106 43,-25 92,-37 146,-37 54,0 102,12 145,37 43,25 77,60 101,105 25,45 37,96 37,154l-1 24zm-282 -253c-56,0 -103,18 -141,54 -39,36 -60,83 -65,140l413 0c-5,-57 -26,-104 -64,-140 -39,-36 -86,-54 -143,-54zm519 51c19,-39 46,-69 83,-89 36,-19 82,-29 136,-29l0 76 -19 -1c-62,0 -110,19 -144,57 -35,37 -53,90 -53,158l0 297 -78 0 0 -583 75 0 0 114zm876 -114l-291 653c-24,55 -51,94 -82,117 -31,23 -69,34 -112,34 -29,0 -55,-4 -79,-13 -25,-9 -46,-22 -63,-40l36 -59c30,30 65,45 107,45 26,0 49,-8 68,-23 19,-14 36,-40 53,-75l25 -57 -261 -582 83 0 219 496 220 -496 77 0zm419 -193l82 0 0 776 -82 0 0 -776zm486 71l-273 0 0 -71 628 0 0 71 -273 0 0 705 -82 0 0 -705zm479 -71l93 0 -17 544 -61 0 -15 -544zm46 782c-16,0 -30,-6 -41,-17 -12,-12 -17,-25 -17,-41 0,-16 5,-29 16,-40 11,-11 25,-16 42,-16 17,0 30,5 41,16 12,11 17,24 17,40 0,16 -5,29 -17,41 -11,11 -24,17 -41,17z"/>
   <path class="fil0" d="M1451 8969l0 896 1568 0 0 629 -1568 0 0 1234 -784 0 0 -3388 2560 0 0 629 -1776 0zm2308 -629l784 0 0 3388 -784 0 0 -3388zm4694 0l0 3388 -643 0 -1689 -2057 0 2057 -774 0 0 -3388 648 0 1684 2057 0 -2057 774 0zm803 0l1539 0c368,0 693,70 975,211 283,140 502,338 658,593 157,254 235,551 235,890 0,339 -78,635 -235,890 -156,255 -375,453 -658,593 -282,140 -607,211 -975,211l-1539 0 0 -3388zm1501 2744c338,0 608,-94 810,-283 202,-189 303,-444 303,-767 0,-323 -101,-578 -303,-767 -202,-189 -472,-283 -810,-283l-717 0 0 2100 717 0zm3866 -2744l784 0 0 3388 -784 0 0 -3388zm2289 639l-1084 0 0 -639 2952 0 0 639 -1084 0 0 2749 -784 0 0 -2749zm2235 -639l900 0 -150 2212 -600 0 -150 -2212zm450 3426c-132,0 -242,-42 -331,-128 -89,-85 -133,-189 -133,-312 0,-123 43,-225 130,-307 88,-83 199,-124 334,-124 136,0 247,41 334,124 87,82 131,184 131,307 0,123 -44,227 -133,312 -89,86 -199,128 -332,128z"/>
  </g>
 </g>
</svg>
